<?xml version="1.0" encoding="utf-8"?>
<!-- Generator: Adobe Illustrator 19.0.0, SVG Export Plug-In . SVG Version: 6.00 Build 0)  -->
<svg version="1.1" id="Layer_1" xmlns="http://www.w3.org/2000/svg" xmlns:xlink="http://www.w3.org/1999/xlink" x="0px" y="0px"
	 viewBox="0 0 131 31" style="enable-background:new 0 0 131 31;" xml:space="preserve">
<style type="text/css">
	.st0{enable-background:new    ;}
	.st1{display:none;fill:#DAA159;}
	.st2{display:none;}
	.st3{display:inline;}
	.st4{fill:#DAA159;}
</style>
<g>
	<g class="st0">
		<path d="M13.2,22.8V15l-4.6,6.9L3.9,15v7.9H1.6V7.3l7,10.4l7-10.4v15.5H13.2z"/>
		<path d="M41.7,19.7h-5.3l-1.3,3.2h-2.6L39,7.3l6.4,15.5h-2.5L41.7,19.7z M40.8,17.6L39,13.1l-1.8,4.5H40.8z"/>
		<path d="M72.9,22.8L69,17L65,22.8h-2.9l5.4-7.9L62.8,8h2.9l3.2,4.8L72.2,8h2.9l-4.7,6.9l5.4,7.9H72.9z"/>
		<path d="M126.2,22.8V15l-4.6,6.9l-4.7-6.9v7.9h-2.3V7.3l7,10.4l7-10.4v15.5H126.2z"/>
	</g>
	<path id="XMLID_4_" class="st1" d="M102.7,13.8c-0.3-0.5-0.8-0.8-1.2-0.8h-5.1l1.5-11.7c0-0.5-0.1-0.9-0.6-1s-0.9,0-1.2,0.5
		l-8.1,15c-0.3,0.5-0.3,1,0,1.5c0.3,0.4,0.8,0.8,1.2,0.8h5.1l-1.5,11.7c0,0.4,0.1,0.9,0.6,1.1c0.2,0,0.2,0,0.3,0
		c0.3,0,0.6-0.2,0.9-0.4l8.1-15C103,14.7,103,14.3,102.7,13.8z M101.8,14.7l-8,14.8l1.5-12.1c0-0.2,0-0.3-0.1-0.4
		c-0.2-0.2-0.3-0.2-0.3-0.2h-5.7c-0.3,0-0.3-0.1-0.5-0.1c0,0-0.2-0.3,0-0.5l8-14.8l-1.5,12.2c0,0.2,0,0.3,0.1,0.5
		c0.2,0.2,0.3,0.2,0.3,0.2h5.7c0.3,0,0.3,0.2,0.5,0.2C101.8,14.4,101.9,14.6,101.8,14.7z"/>
</g>
<g class="st2">
	<g class="st3">
		<polygon class="st4" points="87.3,18.1 91.9,18.1 90.2,30.9 102.8,12.2 98.5,12.2 100.4,0.2 		"/>
	</g>
</g>
<g>
	<g>
		<path class="st4" d="M93.9,30.8C93.9,30.8,93.9,30.8,93.9,30.8c-0.2,0-0.4-0.2-0.4-0.4v-9.6h-3.9c-0.1,0-0.2-0.1-0.3-0.2
			c-0.1-0.1-0.1-0.2,0-0.3l8.5-19.9c0.1-0.2,0.2-0.2,0.4-0.2c0.2,0,0.3,0.2,0.3,0.4v9.6h3.9c0.1,0,0.2,0.1,0.3,0.2
			c0.1,0.1,0.1,0.2,0,0.3l-8.5,19.9C94.2,30.8,94.1,30.8,93.9,30.8z"/>
	</g>
</g>
</svg>
